<?xml version="1.0" encoding="UTF-8" standalone="no"?>
<!DOCTYPE svg PUBLIC "-//W3C//DTD SVG 1.1//EN"
 "http://www.w3.org/Graphics/SVG/1.1/DTD/svg11.dtd">
<!-- Generated by graphviz version 2.50.0 (0)
 -->
<!-- Pages: 1 -->
<svg width="601pt" height="131pt"
 viewBox="0.00 0.00 601.39 131.00" xmlns="http://www.w3.org/2000/svg" xmlns:xlink="http://www.w3.org/1999/xlink">
<g id="graph0" class="graph" transform="scale(1 1) rotate(0) translate(4 127)">
<polygon fill="white" stroke="transparent" points="-4,4 -4,-127 597.39,-127 597.39,4 -4,4"/>
<!-- Daniela da Cruz -->
<g id="node1" class="node">
<title>Daniela da Cruz</title>
<ellipse fill="none" stroke="black" cx="259.34" cy="-105" rx="70.69" ry="18"/>
<text text-anchor="middle" x="259.34" y="-101.3" font-family="Times,serif" font-size="14.00">Daniela da Cruz</text>
</g>
<!-- Nuno Oliveira -->
<g id="node2" class="node">
<title>Nuno Oliveira</title>
<ellipse fill="none" stroke="black" cx="64.34" cy="-18" rx="64.19" ry="18"/>
<text text-anchor="middle" x="64.34" y="-14.3" font-family="Times,serif" font-size="14.00">Nuno Oliveira</text>
</g>
<!-- Daniela da Cruz&#45;&#45;Nuno Oliveira -->
<g id="edge1" class="edge">
<title>Daniela da Cruz&#45;&#45;Nuno Oliveira</title>
<path fill="none" stroke="black" d="M225.38,-89.19C189.48,-73.55 133.22,-49.02 97.6,-33.49"/>
<text text-anchor="middle" x="182.34" y="-57.8" font-family="Times,serif" font-size="14.00">11</text>
</g>
<!-- Maria Joao Varanda Pereira -->
<g id="node3" class="node">
<title>Maria Joao Varanda Pereira</title>
<ellipse fill="none" stroke="black" cx="259.34" cy="-18" rx="112.38" ry="18"/>
<text text-anchor="middle" x="259.34" y="-14.3" font-family="Times,serif" font-size="14.00">Maria Joao Varanda Pereira</text>
</g>
<!-- Daniela da Cruz&#45;&#45;Maria Joao Varanda Pereira -->
<g id="edge2" class="edge">
<title>Daniela da Cruz&#45;&#45;Maria Joao Varanda Pereira</title>
<path fill="none" stroke="black" d="M259.34,-86.8C259.34,-72.05 259.34,-50.92 259.34,-36.18"/>
<text text-anchor="middle" x="267.34" y="-57.8" font-family="Times,serif" font-size="14.00">25</text>
</g>
<!-- Pedro Rangel Henriques -->
<g id="node4" class="node">
<title>Pedro Rangel Henriques</title>
<ellipse fill="none" stroke="black" cx="491.34" cy="-18" rx="102.08" ry="18"/>
<text text-anchor="middle" x="491.34" y="-14.3" font-family="Times,serif" font-size="14.00">Pedro Rangel Henriques</text>
</g>
<!-- Daniela da Cruz&#45;&#45;Pedro Rangel Henriques -->
<g id="edge3" class="edge">
<title>Daniela da Cruz&#45;&#45;Pedro Rangel Henriques</title>
<path fill="none" stroke="black" d="M297.91,-89.87C339.66,-74.57 406.03,-50.26 449.14,-34.46"/>
<text text-anchor="middle" x="397.34" y="-57.8" font-family="Times,serif" font-size="14.00">39</text>
</g>
</g>
</svg>
